<mxfile host="app.diagrams.net" modified="2022-07-18T10:16:59.756Z" agent="5.0 (Windows NT 10.0; Win64; x64) AppleWebKit/537.36 (KHTML, like Gecko) Chrome/100.0.4896.160 YaBrowser/22.5.4.904 Yowser/2.5 Safari/537.36" etag="p6IepYPchpEHEEB4AxKE" version="20.0.4" type="github">
  <diagram id="bRTZraAsIwtwp-RtGRKA" name="Page-1">
    <mxGraphModel dx="1422" dy="765" grid="1" gridSize="10" guides="1" tooltips="1" connect="1" arrows="1" fold="1" page="1" pageScale="1" pageWidth="827" pageHeight="1169" math="0" shadow="0">
      <root>
        <mxCell id="0" />
        <mxCell id="1" parent="0" />
        <mxCell id="O2jL7RBH0PV0tEBPT7sf-1" value="" style="edgeStyle=orthogonalEdgeStyle;rounded=0;orthogonalLoop=1;jettySize=auto;html=1;" edge="1" parent="1" source="O2jL7RBH0PV0tEBPT7sf-2" target="O2jL7RBH0PV0tEBPT7sf-7">
          <mxGeometry relative="1" as="geometry" />
        </mxCell>
        <mxCell id="O2jL7RBH0PV0tEBPT7sf-2" value="Начало" style="rounded=1;whiteSpace=wrap;html=1;" vertex="1" parent="1">
          <mxGeometry x="354" y="20" width="120" height="60" as="geometry" />
        </mxCell>
        <mxCell id="O2jL7RBH0PV0tEBPT7sf-3" value="Конец" style="rounded=1;whiteSpace=wrap;html=1;" vertex="1" parent="1">
          <mxGeometry x="354" y="730" width="120" height="60" as="geometry" />
        </mxCell>
        <mxCell id="O2jL7RBH0PV0tEBPT7sf-4" value="" style="edgeStyle=orthogonalEdgeStyle;rounded=0;orthogonalLoop=1;jettySize=auto;html=1;" edge="1" parent="1" source="O2jL7RBH0PV0tEBPT7sf-5" target="O2jL7RBH0PV0tEBPT7sf-9">
          <mxGeometry relative="1" as="geometry" />
        </mxCell>
        <mxCell id="O2jL7RBH0PV0tEBPT7sf-5" value="Генерация случайных чисел и запись их в массив array&lt;br&gt;min_number = array[0]" style="rounded=0;whiteSpace=wrap;html=1;" vertex="1" parent="1">
          <mxGeometry x="296" y="200" width="236" height="60" as="geometry" />
        </mxCell>
        <mxCell id="O2jL7RBH0PV0tEBPT7sf-6" value="" style="edgeStyle=orthogonalEdgeStyle;rounded=0;orthogonalLoop=1;jettySize=auto;html=1;" edge="1" parent="1" source="O2jL7RBH0PV0tEBPT7sf-7" target="O2jL7RBH0PV0tEBPT7sf-5">
          <mxGeometry relative="1" as="geometry" />
        </mxCell>
        <mxCell id="O2jL7RBH0PV0tEBPT7sf-7" value="Ввод размера массива N" style="shape=parallelogram;perimeter=parallelogramPerimeter;whiteSpace=wrap;html=1;fixedSize=1;" vertex="1" parent="1">
          <mxGeometry x="354" y="100" width="120" height="60" as="geometry" />
        </mxCell>
        <mxCell id="O2jL7RBH0PV0tEBPT7sf-8" style="edgeStyle=orthogonalEdgeStyle;rounded=0;orthogonalLoop=1;jettySize=auto;html=1;entryX=1.033;entryY=0.388;entryDx=0;entryDy=0;entryPerimeter=0;" edge="1" parent="1" source="O2jL7RBH0PV0tEBPT7sf-9" target="O2jL7RBH0PV0tEBPT7sf-12">
          <mxGeometry relative="1" as="geometry">
            <mxPoint x="570" y="690" as="targetPoint" />
            <Array as="points">
              <mxPoint x="610" y="330" />
              <mxPoint x="610" y="651" />
            </Array>
          </mxGeometry>
        </mxCell>
        <mxCell id="O2jL7RBH0PV0tEBPT7sf-9" value="i = 1; i &amp;lt; N; i++" style="shape=hexagon;perimeter=hexagonPerimeter2;whiteSpace=wrap;html=1;fixedSize=1;" vertex="1" parent="1">
          <mxGeometry x="354" y="290" width="120" height="80" as="geometry" />
        </mxCell>
        <mxCell id="O2jL7RBH0PV0tEBPT7sf-10" value="min_number += array[i]" style="whiteSpace=wrap;html=1;" vertex="1" parent="1">
          <mxGeometry x="310" y="430" width="190" height="60" as="geometry" />
        </mxCell>
        <mxCell id="O2jL7RBH0PV0tEBPT7sf-11" value="" style="edgeStyle=orthogonalEdgeStyle;rounded=0;orthogonalLoop=1;jettySize=auto;html=1;" edge="1" parent="1" source="O2jL7RBH0PV0tEBPT7sf-12" target="O2jL7RBH0PV0tEBPT7sf-3">
          <mxGeometry relative="1" as="geometry" />
        </mxCell>
        <mxCell id="O2jL7RBH0PV0tEBPT7sf-12" value="min_number&amp;nbsp;" style="shape=document;whiteSpace=wrap;html=1;boundedLbl=1;" vertex="1" parent="1">
          <mxGeometry x="354" y="620" width="120" height="80" as="geometry" />
        </mxCell>
      </root>
    </mxGraphModel>
  </diagram>
</mxfile>
